<mxfile host="65bd71144e">
    <diagram id="gKebh2m8zNUL7nfEKdf9" name="ページ1">
        <mxGraphModel dx="1086" dy="702" grid="1" gridSize="10" guides="1" tooltips="1" connect="1" arrows="1" fold="1" page="1" pageScale="1" pageWidth="827" pageHeight="1169" math="0" shadow="0">
            <root>
                <mxCell id="0"/>
                <mxCell id="1" parent="0"/>
                <mxCell id="7" value="スコア取得" style="rounded=1;whiteSpace=wrap;html=1;" vertex="1" parent="1">
                    <mxGeometry x="292.5" y="180" width="105" height="40" as="geometry"/>
                </mxCell>
                <mxCell id="8" value="後処理ルール&lt;div&gt;確認&lt;/div&gt;" style="rounded=1;whiteSpace=wrap;html=1;" vertex="1" parent="1">
                    <mxGeometry x="292.5" y="240" width="105" height="40" as="geometry"/>
                </mxCell>
                <mxCell id="9" style="edgeStyle=none;html=1;entryX=0.5;entryY=0;entryDx=0;entryDy=0;" edge="1" parent="1" target="7">
                    <mxGeometry relative="1" as="geometry">
                        <mxPoint x="345" y="160" as="sourcePoint"/>
                        <mxPoint x="355" y="130" as="targetPoint"/>
                    </mxGeometry>
                </mxCell>
                <mxCell id="10" value="" style="rhombus;whiteSpace=wrap;html=1;" vertex="1" parent="1">
                    <mxGeometry x="330" y="300" width="30" height="30" as="geometry"/>
                </mxCell>
                <mxCell id="11" style="edgeStyle=none;html=1;entryX=0.5;entryY=0;entryDx=0;entryDy=0;" edge="1" parent="1" target="8">
                    <mxGeometry relative="1" as="geometry">
                        <mxPoint x="345" y="220" as="sourcePoint"/>
                        <mxPoint x="355" y="190" as="targetPoint"/>
                    </mxGeometry>
                </mxCell>
                <mxCell id="12" style="edgeStyle=none;html=1;entryX=0.5;entryY=0;entryDx=0;entryDy=0;" edge="1" parent="1" target="10">
                    <mxGeometry relative="1" as="geometry">
                        <mxPoint x="345" y="280" as="sourcePoint"/>
                        <mxPoint x="355" y="250" as="targetPoint"/>
                    </mxGeometry>
                </mxCell>
                <mxCell id="13" value="" style="shape=sumEllipse;perimeter=ellipsePerimeter;whiteSpace=wrap;html=1;backgroundOutline=1;" vertex="1" parent="1">
                    <mxGeometry x="540" y="305" width="20" height="20" as="geometry"/>
                </mxCell>
                <mxCell id="14" style="edgeStyle=none;html=1;entryX=0;entryY=0.5;entryDx=0;entryDy=0;exitX=1;exitY=0.5;exitDx=0;exitDy=0;" edge="1" parent="1" source="10" target="13">
                    <mxGeometry relative="1" as="geometry">
                        <mxPoint x="355" y="290" as="sourcePoint"/>
                        <mxPoint x="355" y="310" as="targetPoint"/>
                    </mxGeometry>
                </mxCell>
                <mxCell id="15" value="後処理無" style="edgeLabel;html=1;align=center;verticalAlign=middle;resizable=0;points=[];" vertex="1" connectable="0" parent="14">
                    <mxGeometry x="-0.2" y="-3" relative="1" as="geometry">
                        <mxPoint x="8" y="-13" as="offset"/>
                    </mxGeometry>
                </mxCell>
                <mxCell id="16" value="送信済でないか&lt;div&gt;確認&lt;/div&gt;" style="rounded=1;whiteSpace=wrap;html=1;" vertex="1" parent="1">
                    <mxGeometry x="292.5" y="350" width="105" height="40" as="geometry"/>
                </mxCell>
                <mxCell id="17" style="edgeStyle=none;html=1;entryX=0.5;entryY=0;entryDx=0;entryDy=0;exitX=0.5;exitY=1;exitDx=0;exitDy=0;" edge="1" parent="1" source="10" target="16">
                    <mxGeometry relative="1" as="geometry">
                        <mxPoint x="355" y="290" as="sourcePoint"/>
                        <mxPoint x="355" y="310" as="targetPoint"/>
                    </mxGeometry>
                </mxCell>
                <mxCell id="20" value="後処理ルール１" style="edgeLabel;html=1;align=center;verticalAlign=middle;resizable=0;points=[];" vertex="1" connectable="0" parent="17">
                    <mxGeometry x="-0.2" y="1" relative="1" as="geometry">
                        <mxPoint x="44" as="offset"/>
                    </mxGeometry>
                </mxCell>
                <mxCell id="18" value="" style="rhombus;whiteSpace=wrap;html=1;" vertex="1" parent="1">
                    <mxGeometry x="330" y="410" width="30" height="30" as="geometry"/>
                </mxCell>
                <mxCell id="19" style="edgeStyle=none;html=1;entryX=0.5;entryY=0;entryDx=0;entryDy=0;" edge="1" parent="1" target="18">
                    <mxGeometry relative="1" as="geometry">
                        <mxPoint x="345" y="390" as="sourcePoint"/>
                        <mxPoint x="355" y="360" as="targetPoint"/>
                    </mxGeometry>
                </mxCell>
                <mxCell id="22" value="ログインID取得" style="rounded=1;whiteSpace=wrap;html=1;" vertex="1" parent="1">
                    <mxGeometry x="292.5" y="460" width="105" height="40" as="geometry"/>
                </mxCell>
                <mxCell id="23" style="edgeStyle=none;html=1;entryX=0.5;entryY=0;entryDx=0;entryDy=0;exitX=0.5;exitY=1;exitDx=0;exitDy=0;" edge="1" parent="1" source="18" target="22">
                    <mxGeometry relative="1" as="geometry">
                        <mxPoint x="355" y="400" as="sourcePoint"/>
                        <mxPoint x="355" y="420" as="targetPoint"/>
                        <Array as="points"/>
                    </mxGeometry>
                </mxCell>
                <mxCell id="27" value="未送信" style="edgeLabel;html=1;align=center;verticalAlign=middle;resizable=0;points=[];" vertex="1" connectable="0" parent="23">
                    <mxGeometry x="-0.2" relative="1" as="geometry">
                        <mxPoint x="25" as="offset"/>
                    </mxGeometry>
                </mxCell>
                <mxCell id="24" value="" style="shape=sumEllipse;perimeter=ellipsePerimeter;whiteSpace=wrap;html=1;backgroundOutline=1;" vertex="1" parent="1">
                    <mxGeometry x="540" y="415" width="20" height="20" as="geometry"/>
                </mxCell>
                <mxCell id="25" style="edgeStyle=none;html=1;entryX=0;entryY=0.5;entryDx=0;entryDy=0;exitX=1;exitY=0.5;exitDx=0;exitDy=0;" edge="1" parent="1" source="18" target="24">
                    <mxGeometry relative="1" as="geometry">
                        <mxPoint x="370" y="325" as="sourcePoint"/>
                        <mxPoint x="550" y="325" as="targetPoint"/>
                    </mxGeometry>
                </mxCell>
                <mxCell id="26" value="送信済" style="edgeLabel;html=1;align=center;verticalAlign=middle;resizable=0;points=[];" vertex="1" connectable="0" parent="25">
                    <mxGeometry x="-0.2" y="-3" relative="1" as="geometry">
                        <mxPoint x="8" y="-13" as="offset"/>
                    </mxGeometry>
                </mxCell>
                <mxCell id="28" value="結果送信" style="rounded=1;whiteSpace=wrap;html=1;" vertex="1" parent="1">
                    <mxGeometry x="291.5" y="571" width="105" height="40" as="geometry"/>
                </mxCell>
                <mxCell id="29" style="edgeStyle=none;html=1;entryX=0.5;entryY=0;entryDx=0;entryDy=0;exitX=0.5;exitY=1;exitDx=0;exitDy=0;" edge="1" parent="1" target="28">
                    <mxGeometry relative="1" as="geometry">
                        <mxPoint x="344" y="551" as="sourcePoint"/>
                        <mxPoint x="354" y="471" as="targetPoint"/>
                    </mxGeometry>
                </mxCell>
                <mxCell id="30" value="レスポンス&lt;div&gt;待ち&lt;/div&gt;" style="html=1;shape=mxgraph.infographic.ribbonSimple;notch1=20;notch2=0;align=center;verticalAlign=middle;fontSize=14;fontStyle=0;fillColor=#FFFFFF;flipH=0;spacingRight=0;spacingLeft=14;whiteSpace=wrap;" vertex="1" parent="1">
                    <mxGeometry x="290" y="635.5" width="107.5" height="40" as="geometry"/>
                </mxCell>
                <mxCell id="31" style="edgeStyle=none;html=1;entryX=0;entryY=0;entryDx=53.75;entryDy=0;exitX=0.5;exitY=1;exitDx=0;exitDy=0;entryPerimeter=0;" edge="1" parent="1" source="28" target="30">
                    <mxGeometry relative="1" as="geometry">
                        <mxPoint x="354" y="561" as="sourcePoint"/>
                        <mxPoint x="354" y="581" as="targetPoint"/>
                    </mxGeometry>
                </mxCell>
                <mxCell id="34" style="edgeStyle=none;html=1;exitX=0;exitY=0;exitDx=53.75;exitDy=40;exitPerimeter=0;entryX=0.508;entryY=0;entryDx=0;entryDy=0;entryPerimeter=0;" edge="1" parent="1" source="30" target="32">
                    <mxGeometry relative="1" as="geometry">
                        <mxPoint x="499" y="671" as="targetPoint"/>
                    </mxGeometry>
                </mxCell>
                <mxCell id="32" value="" style="rhombus;whiteSpace=wrap;html=1;" vertex="1" parent="1">
                    <mxGeometry x="328.75" y="701" width="28" height="30" as="geometry"/>
                </mxCell>
                <mxCell id="35" value="" style="edgeStyle=elbowEdgeStyle;elbow=vertical;endArrow=classic;html=1;curved=0;rounded=0;endSize=8;startSize=8;entryX=0;entryY=0.5;entryDx=0;entryDy=0;exitX=0;exitY=0.5;exitDx=0;exitDy=0;" edge="1" parent="1" source="32" target="37">
                    <mxGeometry width="50" height="50" relative="1" as="geometry">
                        <mxPoint x="210" y="710" as="sourcePoint"/>
                        <mxPoint x="439" y="681" as="targetPoint"/>
                        <Array as="points">
                            <mxPoint x="210" y="620"/>
                        </Array>
                    </mxGeometry>
                </mxCell>
                <mxCell id="40" value="タイムアウト&lt;div&gt;リトライ回数内&lt;/div&gt;" style="edgeLabel;html=1;align=center;verticalAlign=middle;resizable=0;points=[];" vertex="1" connectable="0" parent="35">
                    <mxGeometry x="-0.0707" y="-3" relative="1" as="geometry">
                        <mxPoint x="-53" y="-20" as="offset"/>
                    </mxGeometry>
                </mxCell>
                <mxCell id="37" value="" style="rhombus;whiteSpace=wrap;html=1;" vertex="1" parent="1">
                    <mxGeometry x="329" y="521" width="30" height="30" as="geometry"/>
                </mxCell>
                <mxCell id="38" style="edgeStyle=none;html=1;entryX=0.5;entryY=0;entryDx=0;entryDy=0;" edge="1" parent="1" target="37">
                    <mxGeometry relative="1" as="geometry">
                        <mxPoint x="344" y="500" as="sourcePoint"/>
                        <mxPoint x="355" y="470" as="targetPoint"/>
                        <Array as="points"/>
                    </mxGeometry>
                </mxCell>
                <mxCell id="54" style="edgeStyle=none;html=1;exitX=0.5;exitY=1;exitDx=0;exitDy=0;entryX=0.5;entryY=0;entryDx=0;entryDy=0;" edge="1" parent="1" source="41" target="49">
                    <mxGeometry relative="1" as="geometry"/>
                </mxCell>
                <mxCell id="41" value="&lt;div&gt;送信結果登録&lt;/div&gt;" style="rounded=1;whiteSpace=wrap;html=1;" vertex="1" parent="1">
                    <mxGeometry x="290" y="750" width="105" height="40" as="geometry"/>
                </mxCell>
                <mxCell id="43" style="edgeStyle=none;html=1;entryX=0.5;entryY=0;entryDx=0;entryDy=0;exitX=0.5;exitY=1;exitDx=0;exitDy=0;" edge="1" parent="1" source="32" target="41">
                    <mxGeometry relative="1" as="geometry">
                        <mxPoint x="354" y="621" as="sourcePoint"/>
                        <mxPoint x="354" y="646" as="targetPoint"/>
                    </mxGeometry>
                </mxCell>
                <mxCell id="48" value="成功、エラー" style="edgeLabel;html=1;align=center;verticalAlign=middle;resizable=0;points=[];" vertex="1" connectable="0" parent="43">
                    <mxGeometry x="0.0507" y="1" relative="1" as="geometry">
                        <mxPoint x="37" y="-7" as="offset"/>
                    </mxGeometry>
                </mxCell>
                <mxCell id="49" value="" style="ellipse;html=1;shape=endState;fillColor=strokeColor;" vertex="1" parent="1">
                    <mxGeometry x="332.5" y="810" width="20" height="20" as="geometry"/>
                </mxCell>
                <mxCell id="50" value="" style="ellipse;fillColor=strokeColor;html=1;" vertex="1" parent="1">
                    <mxGeometry x="335" y="140" width="20" height="20" as="geometry"/>
                </mxCell>
            </root>
        </mxGraphModel>
    </diagram>
</mxfile>